<svg width="150" height="50" viewBox="0 0 150 50" fill="none" xmlns="http://www.w3.org/2000/svg">
<rect width="50" height="50" rx="25" fill="#FEE440"/>
<path d="M30.4087 22.2656L37.2163 14.8906C37.3676 14.7269 37.5603 14.6155 37.77 14.5704C37.9797 14.5252 38.1971 14.5484 38.3946 14.6371C38.5921 14.7257 38.761 14.8757 38.8799 15.0682C38.9988 15.2608 39.0623 15.4871 39.0625 15.7187V33.5C39.0623 33.7316 38.9988 33.958 38.8799 34.1505C38.761 34.343 38.5921 34.4931 38.3946 34.5817C38.1971 34.6703 37.9797 34.6935 37.77 34.6484C37.5603 34.6033 37.3676 34.4918 37.2163 34.3281L30.4087 26.9531M14.1827 35.1562H27.1635C28.0241 35.1562 28.8496 34.7859 29.4582 34.1265C30.0668 33.4672 30.4087 32.573 30.4087 31.6406V17.5781C30.4087 16.6457 30.0668 15.7515 29.4582 15.0922C28.8496 14.4329 28.0241 14.0625 27.1635 14.0625H14.1827C13.322 14.0625 12.4966 14.4329 11.888 15.0922C11.2794 15.7515 10.9375 16.6457 10.9375 17.5781V31.6406C10.9375 32.573 11.2794 33.4672 11.888 34.1265C12.4966 34.7859 13.322 35.1562 14.1827 35.1562V35.1562Z" stroke="#282828" stroke-width="3" stroke-linecap="round"/>
</svg>
